<svg width="216" height="53" viewBox="0 0 216 53" fill="none" xmlns="http://www.w3.org/2000/svg">
<g clip-path="url(#clip0_0_205)">
<path d="M76.9533 38.204C75.1627 38.204 73.4967 37.9093 71.9553 37.32C70.4367 36.708 69.1107 35.858 67.9773 34.77C66.8667 33.6593 65.994 32.3787 65.3593 30.928C64.7473 29.4547 64.4413 27.8453 64.4413 26.1C64.4413 24.3547 64.7473 22.7567 65.3593 21.306C65.994 19.8327 66.8667 18.552 67.9773 17.464C69.1107 16.3533 70.4367 15.5033 71.9553 14.914C73.474 14.302 75.14 13.996 76.9533 13.996C78.744 13.996 80.3987 14.302 81.9173 14.914C83.436 15.5033 84.7507 16.342 85.8613 17.43C86.9947 18.518 87.8673 19.7987 88.4793 21.272C89.114 22.7453 89.4313 24.3547 89.4313 26.1C89.4313 27.8453 89.114 29.4547 88.4793 30.928C87.8673 32.4013 86.9947 33.682 85.8613 34.77C84.7507 35.858 83.436 36.708 81.9173 37.32C80.3987 37.9093 78.744 38.204 76.9533 38.204ZM76.9533 35.96C78.3813 35.96 79.696 35.722 80.8973 35.246C82.1213 34.7473 83.1753 34.056 84.0593 33.172C84.966 32.2653 85.6687 31.2227 86.1673 30.044C86.666 28.8427 86.9153 27.528 86.9153 26.1C86.9153 24.672 86.666 23.3687 86.1673 22.19C85.6687 20.9887 84.966 19.946 84.0593 19.062C83.1753 18.1553 82.1213 17.464 80.8973 16.988C79.696 16.4893 78.3813 16.24 76.9533 16.24C75.5253 16.24 74.1993 16.4893 72.9753 16.988C71.7513 17.464 70.686 18.1553 69.7793 19.062C68.8953 19.946 68.1927 20.9887 67.6713 22.19C67.1727 23.3687 66.9233 24.672 66.9233 26.1C66.9233 27.5053 67.1727 28.8087 67.6713 30.01C68.1927 31.2113 68.8953 32.2653 69.7793 33.172C70.686 34.056 71.7513 34.7473 72.9753 35.246C74.1993 35.722 75.5253 35.96 76.9533 35.96ZM103.775 38.17C102.211 38.17 100.805 37.8187 99.5588 37.116C98.3122 36.3907 97.3262 35.348 96.6008 33.988C95.8755 32.628 95.5128 30.9847 95.5128 29.058C95.5128 27.1087 95.8755 25.4653 96.6008 24.128C97.3488 22.768 98.3462 21.7367 99.5928 21.034C100.839 20.3313 102.233 19.98 103.775 19.98C105.475 19.98 106.993 20.3653 108.331 21.136C109.691 21.884 110.756 22.938 111.527 24.298C112.297 25.658 112.683 27.2447 112.683 29.058C112.683 30.8487 112.297 32.4353 111.527 33.818C110.756 35.178 109.691 36.2433 108.331 37.014C106.993 37.7847 105.475 38.17 103.775 38.17ZM94.5608 38V12.772H96.9748V25.42L96.6348 29.024L96.8728 32.628V38H94.5608ZM103.605 36.028C104.874 36.028 106.007 35.7447 107.005 35.178C108.002 34.5887 108.795 33.7727 109.385 32.73C109.974 31.6647 110.269 30.4407 110.269 29.058C110.269 27.6527 109.974 26.4287 109.385 25.386C108.795 24.3433 108.002 23.5387 107.005 22.972C106.007 22.3827 104.874 22.088 103.605 22.088C102.335 22.088 101.191 22.3827 100.171 22.972C99.1735 23.5387 98.3802 24.3433 97.7908 25.386C97.2242 26.4287 96.9408 27.6527 96.9408 29.058C96.9408 30.4407 97.2242 31.6647 97.7908 32.73C98.3802 33.7727 99.1735 34.5887 100.171 35.178C101.191 35.7447 102.335 36.028 103.605 36.028ZM122.398 38.17C120.924 38.17 119.53 37.966 118.216 37.558C116.901 37.1273 115.87 36.5947 115.122 35.96L116.21 34.056C116.935 34.6 117.864 35.076 118.998 35.484C120.131 35.8693 121.321 36.062 122.568 36.062C124.268 36.062 125.492 35.8013 126.24 35.28C126.988 34.736 127.362 34.022 127.362 33.138C127.362 32.4807 127.146 31.9707 126.716 31.608C126.308 31.2227 125.764 30.9393 125.084 30.758C124.404 30.554 123.644 30.384 122.806 30.248C121.967 30.112 121.128 29.9533 120.29 29.772C119.474 29.5907 118.726 29.33 118.046 28.99C117.366 28.6273 116.81 28.14 116.38 27.528C115.972 26.916 115.768 26.1 115.768 25.08C115.768 24.1053 116.04 23.2327 116.584 22.462C117.128 21.6913 117.921 21.0907 118.964 20.66C120.029 20.2067 121.321 19.98 122.84 19.98C123.996 19.98 125.152 20.1387 126.308 20.456C127.464 20.7507 128.416 21.1473 129.164 21.646L128.11 23.584C127.316 23.04 126.466 22.6547 125.56 22.428C124.653 22.1787 123.746 22.054 122.84 22.054C121.23 22.054 120.04 22.3373 119.27 22.904C118.522 23.448 118.148 24.1507 118.148 25.012C118.148 25.692 118.352 26.2247 118.76 26.61C119.19 26.9953 119.746 27.3013 120.426 27.528C121.128 27.732 121.888 27.902 122.704 28.038C123.542 28.174 124.37 28.344 125.186 28.548C126.024 28.7293 126.784 28.99 127.464 29.33C128.166 29.6473 128.722 30.112 129.13 30.724C129.56 31.3133 129.776 32.0953 129.776 33.07C129.776 34.1127 129.481 35.0193 128.892 35.79C128.325 36.538 127.486 37.1273 126.376 37.558C125.288 37.966 123.962 38.17 122.398 38.17ZM141.617 38.17C139.849 38.17 138.263 37.7847 136.857 37.014C135.475 36.2207 134.387 35.144 133.593 33.784C132.8 32.4013 132.403 30.826 132.403 29.058C132.403 27.2673 132.8 25.692 133.593 24.332C134.387 22.972 135.475 21.9067 136.857 21.136C138.263 20.3653 139.849 19.98 141.617 19.98C143.136 19.98 144.507 20.2747 145.731 20.864C146.955 21.4533 147.919 22.3373 148.621 23.516L146.819 24.74C146.207 23.8333 145.448 23.1647 144.541 22.734C143.635 22.3033 142.649 22.088 141.583 22.088C140.314 22.088 139.169 22.3827 138.149 22.972C137.129 23.5387 136.325 24.3433 135.735 25.386C135.146 26.4287 134.851 27.6527 134.851 29.058C134.851 30.4633 135.146 31.6873 135.735 32.73C136.325 33.7727 137.129 34.5887 138.149 35.178C139.169 35.7447 140.314 36.028 141.583 36.028C142.649 36.028 143.635 35.8127 144.541 35.382C145.448 34.9513 146.207 34.294 146.819 33.41L148.621 34.634C147.919 35.79 146.955 36.674 145.731 37.286C144.507 37.8753 143.136 38.17 141.617 38.17ZM160.742 38.17C159.223 38.17 157.897 37.8867 156.764 37.32C155.63 36.7533 154.746 35.9033 154.112 34.77C153.5 33.6367 153.194 32.22 153.194 30.52V20.15H155.608V30.248C155.608 32.152 156.072 33.5913 157.002 34.566C157.954 35.518 159.28 35.994 160.98 35.994C162.226 35.994 163.303 35.7447 164.21 35.246C165.139 34.7247 165.842 33.9767 166.318 33.002C166.816 32.0273 167.066 30.86 167.066 29.5V20.15H169.48V38H167.168V33.104L167.542 33.988C166.975 35.3027 166.091 36.334 164.89 37.082C163.711 37.8073 162.328 38.17 160.742 38.17ZM176.207 38V20.15H178.519V25.012L178.281 24.162C178.78 22.802 179.619 21.7707 180.797 21.068C181.976 20.3427 183.438 19.98 185.183 19.98V22.326C185.093 22.326 185.002 22.326 184.911 22.326C184.821 22.3033 184.73 22.292 184.639 22.292C182.758 22.292 181.285 22.87 180.219 24.026C179.154 25.1593 178.621 26.78 178.621 28.888V38H176.207ZM199.446 38V34.056L199.344 33.41V26.814C199.344 25.2953 198.913 24.128 198.052 23.312C197.213 22.496 195.955 22.088 194.278 22.088C193.122 22.088 192.023 22.2807 190.98 22.666C189.937 23.0513 189.053 23.5613 188.328 24.196L187.24 22.394C188.147 21.6233 189.235 21.034 190.504 20.626C191.773 20.1953 193.111 19.98 194.516 19.98C196.828 19.98 198.607 20.558 199.854 21.714C201.123 22.8473 201.758 24.5813 201.758 26.916V38H199.446ZM193.292 38.17C191.955 38.17 190.787 37.9547 189.79 37.524C188.815 37.0707 188.067 36.4587 187.546 35.688C187.025 34.8947 186.764 33.988 186.764 32.968C186.764 32.0387 186.979 31.2 187.41 30.452C187.863 29.6813 188.589 29.0693 189.586 28.616C190.606 28.14 191.966 27.902 193.666 27.902H199.82V29.704H193.734C192.011 29.704 190.81 30.01 190.13 30.622C189.473 31.234 189.144 31.9933 189.144 32.9C189.144 33.92 189.541 34.736 190.334 35.348C191.127 35.96 192.238 36.266 193.666 36.266C195.026 36.266 196.193 35.96 197.168 35.348C198.165 34.7133 198.891 33.8067 199.344 32.628L199.888 34.294C199.435 35.4727 198.641 36.4133 197.508 37.116C196.397 37.8187 194.992 38.17 193.292 38.17Z" fill="white"/>
<ellipse cx="25.7409" cy="30" rx="25.7409" ry="23" fill="white"/>
<ellipse cx="22.9431" cy="31.5" rx="7.27461" ry="6.5" stroke="black" stroke-width="2" stroke-linecap="round" stroke-linejoin="round"/>
<path d="M19.6362 31.5C19.6362 29.868 21.1169 28.545 22.9434 28.545" stroke="black" stroke-width="2" stroke-linecap="round" stroke-linejoin="round"/>
<path fill-rule="evenodd" clip-rule="evenodd" d="M38.0518 19H35.8135C35.1957 19 34.6943 19.448 34.6943 20V22H39.171V20C39.171 19.448 38.6696 19 38.0518 19Z" stroke="black" stroke-width="2" stroke-linecap="round" stroke-linejoin="round"/>
<path fill-rule="evenodd" clip-rule="evenodd" d="M39.1712 22H30.7774L27.9795 17H16.7878L13.9899 22H12.3111C11.0744 22 10.0728 22.895 10.0728 24V40C10.0728 41.105 11.0744 42 12.3111 42H39.1712C40.4079 42 41.4095 41.105 41.4095 40V24C41.4095 22.895 40.4079 22 39.1712 22Z" stroke="black" stroke-width="2" stroke-linecap="round" stroke-linejoin="round"/>
<path d="M19.0259 21H25.7409" stroke="black" stroke-width="2" stroke-linecap="round" stroke-linejoin="round"/>
<path d="M35.8135 26H38.0518" stroke="black" stroke-width="2" stroke-linecap="round" stroke-linejoin="round"/>
</g>
<defs>
<clipPath id="clip0_0_205">
<rect width="216" height="53" fill="white"/>
</clipPath>
</defs>
</svg>
